<svg xmlns="http://www.w3.org/2000/svg" viewBox="0 0 512 512">
  <rect width="512" height="512" rx="96" fill="#0f172a" />
  <path
    fill="#863bff"
    d="M267.676 387.628c-3.984 5.07-12.126 2.25-12.126-4.188v-61.818c0-7.494-6.078-13.572-13.572-13.572h-68.256c-5.52 0-8.736-6.24-5.52-10.728l44.88-62.826c6.42-8.982 0-21.468-11.052-21.468h-82.608c-5.52 0-8.736-6.24-5.52-10.728l58.176-81.456a6.78 6.78 0 0 1 5.52-2.844h173.364c5.52 0 8.736 6.24 5.52 10.728l-44.88 62.826c-6.42 8.988 0 21.474 11.052 21.474h68.262c5.658 0 8.838 6.528 5.34 10.98L267.676 387.628Z"
  />
</svg>
